<?xml version="1.0" encoding="utf-8"?>
<!-- Generator: Adobe Illustrator 24.3.0, SVG Export Plug-In . SVG Version: 6.00 Build 0)  -->
<svg version="1.1" id="Layer_1" xmlns="http://www.w3.org/2000/svg" xmlns:xlink="http://www.w3.org/1999/xlink" x="0px" y="0px"
	 viewBox="0 0 428.81 428.81" enable-background="new 0 0 428.81 428.81" xml:space="preserve">
<path fill="#F3EEE4" d="M41.37,233.81c-8.95-50.23,18.1-105.91,78.24-125.51c-16.96-15.28-25.54-33.35-19.9-56.01
	c3.01-12.08,9.88-21.71,19.97-28.86c21.6-15.32,50.64-12.17,68.39,7.23c19.6,21.43,16.99,48.49-7.47,77.13
	c11.34,5.56,22.68,11.12,33.89,16.62c10.91-5.34,22.14-10.83,34.18-16.72c-15.18-13.55-23.92-30.19-20.23-51.37
	c2.36-13.54,9.31-24.46,20.32-32.6c21.75-16.08,51.39-12.64,69.58,7.89c19.12,21.58,16.07,50.49-8.97,76.65
	c26.75,8.99,48.48,24.21,63.2,48.12c14.64,23.79,19.57,49.6,14.88,77.52c3.04,1.11,6.1,1.98,8.95,3.31
	c13.75,6.4,21.02,20.72,18.1,35.37c-2.91,14.61-15.51,25.41-31.21,25.8c-17.21,0.42-34.45,0.12-51.67,0.13c-3.47,0-6.93,0-9.88,0
	c0.97,17.58,1.91,34.47,2.84,51.39c5.37,3.75,12.83,7.44,18.25,13.09c8.63,9,9.66,20.55,5.09,31.88
	c-4.56,11.31-13.16,19.12-25.72,19.53c-23.91,0.78-47.85,0.64-71.78,0.69c-44.67,0.1-89.33-0.04-134,0.12
	c-20.11,0.07-33.67-9.16-37.29-26.05c-3.45-16.1,5.52-30.05,24.08-37.43c1.02-0.41,2.06-0.75,1.14-0.42
	c0.91-18.04,1.75-34.75,2.65-52.78c-6.09,0-13.23,0-20.38,0c-12.26,0-24.52,0.03-36.78-0.02c-19.79-0.09-32.93-10.34-35.75-27.79
	c-2.56-15.85,6.39-28.98,24.31-35.67C39.23,234.74,40.02,234.38,41.37,233.81z M356.85,176.31c0,4.98,0.01,9.02,0,13.07
	c-0.05,18.16-6.7,24.89-24.69,24.94c-14.3,0.04-28.59-0.03-42.89,0.03c-10.66,0.05-16.28,4.41-16.5,12.63
	c-0.23,8.55,5.8,14.1,16.52,13.55c24.41-1.24,48.81-2.93,73.18-4.81c10.67-0.82,13.6-4.37,14.14-14.83
	c2.87-55.02-37.63-100.82-92.53-103.92c-19.36-1.09-37.76,3.15-54.72,14.36c43.49,25.6,47.77,51.53,15.77,93.98
	c4.72,1.72,9.24,3.36,13.84,5.03c5.4-23.77,11.45-28.55,35.46-28.56c13.13,0,26.26-0.16,39.39,0.07
	c7.41,0.13,10.78-3.24,10.74-10.47c-0.03-4.88-0.01-9.76-0.01-15.07C348.92,176.31,352.29,176.31,356.85,176.31z M199.58,131.58
	c-17.47-12.14-40.99-16.88-65.08-13.47c-49.41,7-87.61,55.52-82.13,104.53c0.7,6.25,2.52,12.3,10.51,12.84
	c25.87,1.74,51.73,3.7,77.62,5.03c9.9,0.51,15.84-5.36,15.62-13.63c-0.21-7.86-5.9-12.48-15.7-12.53
	c-15.77-0.08-31.54,0.09-47.3-0.11c-10.78-0.14-18.72-5.48-20.02-14.62c-1.07-7.56-0.22-15.39-0.22-23.16c3.93,0,7.28,0,11.41,0
	c0,3.74,0.03,6.88-0.01,10.02c-0.16,13.72,1.16,15.21,14.66,15.32c14.31,0.12,28.62-0.17,42.92,0.07
	c14.98,0.25,23.88,8.03,26.68,22.59c0.36,1.89,1.02,3.72,1.61,5.85c4.84-1.75,9.16-3.31,13.89-5.03
	C150.38,195.55,158.12,148.44,199.58,131.58z M167.44,246.53c-34.96,17.64-53.47,57.2-50.22,93.45c0.48,5.4,2.49,10.61,9.52,11.94
	c29.42,5.57,59.11,5.78,88.85,4.99c7.15-0.19,11.22-4.99,11.83-11.82c0.62-6.94-3.06-11.77-9.81-13.58
	c-3.03-0.81-6.35-0.76-9.54-0.77c-16.91-0.06-33.83,0.14-50.73-0.07c-11.55-0.14-19.24-6.68-20.31-17.54
	c-0.65-6.55-0.12-13.21-0.12-20.32c4.44,0,8,0,11.8,0c0.28,2,0.73,3.43,0.64,4.83c-1.48,22.74,0.46,21.08,23.81,20.22
	c0.5-0.02,0.98-0.52,2.87-1.58C172.77,293.57,182.04,268.85,167.44,246.53z M178.33,402.3c0,0.06,0,0.11,0,0.17
	c22.46,0,44.91-0.11,67.37,0.07c7.24,0.06,12.83-1.72,14.09-9.73c1-6.36-3.69-11.14-12.66-12.39c-24.82-3.44-49.68-6.61-74.52-9.89
	c-16.75-2.21-33.49-4.48-50.26-6.57c-4.03-0.5-8.16-0.78-12.21-0.54c-10.84,0.64-18.98,8.89-19.18,19.05
	c-0.21,10.84,7.59,19.51,19.12,19.72C132.82,402.59,155.58,402.3,178.33,402.3z M318.41,65.94c0.19-21.92-17.48-39.87-39.15-39.79
	c-21.39,0.08-39.11,17.65-39.24,38.9c-0.13,21.16,17.67,39.17,38.85,39.33C300.36,104.54,318.23,87.17,318.41,65.94z M214.98,142.84
	c-21.69-0.25-39.57,17.4-39.78,39.26c-0.19,20.45,17.49,38.52,38.27,39.12c21.35,0.62,39.98-17.43,40.19-38.95
	C253.87,161.09,236.21,143.09,214.98,142.84z M149.48,26.34c-21.95,0.12-39.53,18-39.08,39.75c0.44,21.27,18.39,38.51,39.82,38.25
	c21.24-0.26,38.93-18.3,38.63-39.41C188.54,43.45,170.97,26.22,149.48,26.34z M237.59,359.87c-0.06,0,1.36,0.33,2.72,0.15
	c20.5-2.65,41-5.36,61.5-8.06c7.83-1.03,9.59-7.02,9.95-13.29c1.41-24.77-4.92-47.36-20.25-67.07
	c-8.04-10.34-17.57-19.04-30.02-25.53c-14.02,23.4-5.86,47.81-8.47,72.15c6.86,0,12.06-0.11,17.25,0.03
	c6.76,0.18,9.48-3.22,9.31-9.69c-0.13-5.13-0.03-10.26-0.03-16.27c4.99,0.27,8.55,0.46,12.54,0.68c0,4.47,0,7.95,0,11.43
	c0.01,20.68-5.91,26.5-26.59,26.3c-9.13-0.09-18.26-0.01-25.6-0.01C239.04,341.55,238.33,350.52,237.59,359.87z M189.14,317.85
	c17.33,0,33.86,0,50.78,0c2.9-25.92-5.09-52.87,9.78-76.65c-17.45-10.46-58.56-9.43-70.14,0.79
	C193.95,265.3,186.21,291.73,189.14,317.85z M131.96,256.86c-28.29-3.56-55.64-7.37-83.09-10.27c-12.66-1.34-22.21,7.46-22.74,19.02
	c-0.53,11.49,8.28,20.24,21.37,20.41c20.4,0.26,40.8,0.14,61.2-0.08c2.24-0.02,5.4-1.09,6.55-2.76
	C120.82,275.07,125.86,266.59,131.96,256.86z M324.85,253.32c11.33,9.14,15.22,19.34,10.2,32.77c16.39,0,31.2,0.16,46-0.05
	c12.99-0.18,21.8-8.63,21.6-20.2c-0.2-11.38-9.71-20.4-22.36-19.33C362.41,248.01,344.65,250.82,324.85,253.32z M270.6,402.42
	c15.91,0,30.45,0.08,44.98-0.02c13.35-0.09,22.14-7.79,22.27-19.28c0.13-11.75-9.42-20.59-22.81-19.68
	c-13.63,0.92-27.18,3.08-40.76,4.79c-4.12,0.52-8.21,1.33-13.82,2.25C271.56,379.29,274.81,389.17,270.6,402.42z M301.2,262.31
	c4.05,6.9,7.09,12.49,10.57,17.8c1.27,1.94,3.91,4.76,5.32,4.45c2.46-0.54,5.2-2.77,6.5-5.05c3.36-5.91-0.11-13.19-7.12-15.02
	C312.03,263.32,307.34,263.14,301.2,262.31z"/>
</svg>
