<?xml version="1.0" encoding="utf-8"?>
<!-- Generator: Adobe Illustrator 24.3.0, SVG Export Plug-In . SVG Version: 6.00 Build 0)  -->
<svg version="1.1" id="Layer_1" xmlns="http://www.w3.org/2000/svg" xmlns:xlink="http://www.w3.org/1999/xlink" x="0px" y="0px"
	 viewBox="0 0 428.81 428.81" enable-background="new 0 0 428.81 428.81" xml:space="preserve">
<g>
	<g>
		<path fill="#F3EEE4" d="M364.63,130c-31.95-0.03-58.2-25.87-58.51-57.61c-0.15-15.52,5.98-30.27,17.27-41.53
			c11.21-11.18,26.52-17.42,42-17.28c31.8,0.41,57.55,26.75,57.39,58.71C422.62,104.65,397.08,130,364.63,130z M364.68,26.35
			c-11.88,0-23.62,4.92-32.27,13.55c-8.83,8.81-13.63,20.3-13.51,32.36c0.24,24.77,20.77,44.94,45.75,44.96
			c25.32,0,45.25-19.76,45.37-44.99l0,0c0.12-24.98-19.97-45.56-44.78-45.88C365.04,26.36,364.86,26.35,364.68,26.35z"/>
		<g>
			<g>
				<path fill="#F3EEE4" d="M168.45,392.09c-2.4,0-4.72-0.35-6.95-1.06c-6.26-1.98-11.46-6.78-15.04-13.87
					c-6.86-13.56-1.46-27.1,14.1-35.35c23.41-12.42,46.83-24.86,70.21-37.35c3.3-1.76,4.73-2.85,5.34-3.42
					c-0.4-0.7-1.41-2.11-3.89-4.62c-6.37-6.43-12.8-12.79-19.23-19.16c-13.69-13.55-27.85-27.56-41.15-42.02
					c-5.67-6.15-8.47-18.07-6.24-26.57c1.61-6,6.82-9.77,11.86-13.43c1.84-1.33,3.74-2.71,5.3-4.09l3.55-3.14l4.03,2.49
					c2.1,1.3,4.03,2.37,5.9,3.4c3.96,2.2,7.38,4.09,10.34,6.99c23.34,22.94,54.01,53.19,84.27,83.86
					c7.97,8.08,11.62,17.54,10.28,26.62c-1.35,9.18-7.68,17.3-17.83,22.84l-0.01,0c-31.41,17.13-64.78,35.11-99.2,53.44
					C178.59,390.62,173.36,392.09,168.45,392.09z M187.55,203.7c-0.87,0.65-1.74,1.28-2.6,1.91c-2.78,2.01-6.59,4.77-7.01,6.36
					c-1.1,4.17,0.59,11.71,3.29,14.64c13.11,14.24,27.16,28.14,40.74,41.59c6.46,6.39,12.92,12.79,19.31,19.24
					c4.53,4.57,8.6,9.62,7.7,15.56c-0.95,6.26-6.8,9.86-12.21,12.74c-23.39,12.49-46.82,24.94-70.24,37.37
					c-14.15,7.5-10.04,15.63-8.68,18.31c2.03,4.01,4.55,6.52,7.5,7.45c4.23,1.34,9.26-0.59,12.74-2.45
					c34.38-18.31,67.72-36.28,99.09-53.39c6.54-3.58,10.56-8.37,11.31-13.5c0.75-5.1-1.58-10.56-6.74-15.79
					c-30.2-30.6-60.82-60.81-84.13-83.71c-1.72-1.69-4.31-3.12-7.59-4.95C189.26,204.65,188.42,204.19,187.55,203.7z"/>
			</g>
		</g>
		<g>
			<g>
				<path fill="#F3EEE4" d="M112.94,176.38c-1.18,0-2.35-0.09-3.52-0.26c-7.4-1.11-13.64-5.72-17.57-12.97
					c-5.85-10.78-4.14-21.69,4.81-30.71l12.62-12.71c25.48-25.67,51.82-52.21,78.15-77.93c12.61-12.3,29.9-11.92,43.03,0.95
					c20.86,20.45,42.02,41.61,64.67,64.69c3.09,3.15,5.38,6.85,7.81,10.77c1.21,1.95,2.46,3.97,3.92,6.13l2.65,3.9l-2.95,3.68
					c-1.42,1.77-2.76,3.68-4.05,5.53c-3.06,4.38-6.23,8.91-10.83,12.01l-0.01,0.01c-9.86,6.62-21.47,4.9-31.05-4.61l-11.35-11.34
					c-11.18-11.17-22.37-22.34-33.57-33.48c-2.69-2.68-5.69-5.67-7.17-6.64c-1.44,0.94-4.32,3.79-6.89,6.35
					c-6.19,6.15-12.38,12.31-18.57,18.48c-16.03,15.96-32.6,32.46-49.04,48.55C127.6,173.04,120.23,176.38,112.94,176.38z
					 M208.19,45.61c-4.14,0-8.19,1.77-11.84,5.32c-26.25,25.64-52.56,52.15-78,77.78l-12.62,12.71c-4.98,5.01-5.79,9.83-2.65,15.62
					c2.01,3.7,4.86,5.92,8.24,6.43c4.29,0.66,9.3-1.49,13.76-5.86c16.4-16.05,32.95-32.53,48.96-48.47
					c6.19-6.17,12.39-12.33,18.59-18.49c13.85-13.73,18.05-13.68,32.08,0.32c11.2,11.14,22.39,22.32,33.58,33.49l11.34,11.32
					c5.21,5.17,10.23,6.2,14.91,3.06c2.63-1.77,4.89-5,7.5-8.74c0.57-0.81,1.14-1.63,1.74-2.46c-0.6-0.95-1.17-1.86-1.7-2.72
					c-2.22-3.58-3.97-6.41-6.07-8.55c-22.59-23.02-43.68-44.12-64.49-64.52C217.27,47.7,212.68,45.61,208.19,45.61z"/>
			</g>
		</g>
		<g>
			<g>
				<path fill="#F3EEE4" d="M31.02,415.23c-6.53,0-12.86-2.52-17.75-7.54c-10.02-10.27-9.61-25.56,0.99-36.36
					c13.09-13.35,26.55-26.75,39.57-39.71c10.72-10.67,21.8-21.71,32.61-32.64c13.25-13.41,26.29-26.89,40.09-41.17
					c6.7-6.93,13.54-14.01,20.61-21.29l4.89-5.04l4.55,5.35c9.5,11.17,17.16,20.16,25.56,30.02l3.6,4.23l-3.69,4.15
					c-0.2,0.22-0.47,0.56-0.8,0.96c-1.07,1.3-2.69,3.27-4.55,5.15l-0.03,0.03c-40.7,40.65-81.43,81.28-122.19,121.91l-1.07,1.08
					c-1.2,1.23-2.45,2.5-3.89,3.71C43.93,412.84,37.38,415.23,31.02,415.23z M151.41,250.45c-5.34,5.51-10.56,10.91-15.7,16.22
					c-13.82,14.31-26.88,27.82-40.19,41.28c-10.84,10.97-21.94,22.02-32.68,32.72c-12.99,12.93-26.42,26.31-39.46,39.6
					c-5.71,5.81-6.09,13.25-0.96,18.5c4.97,5.11,12.55,4.93,18.85-0.45c1-0.85,1.98-1.84,3.02-2.9l1.17-1.19
					c40.75-40.63,81.47-81.24,122.17-121.89c0.44-0.44,0.86-0.9,1.27-1.35C163.18,264.27,157.63,257.77,151.41,250.45z"/>
			</g>
		</g>
		<g>
			<g>
				<path fill="#F3EEE4" d="M272.87,240.19c-15.7,0-17.81-11.35-19.07-18.14c-4.6-24.76,9.8-37.87,23.72-50.54
					c3.07-2.79,6.24-5.69,9.23-8.71l10-10.13l0.91,14.2c0.17,2.6,0.33,4.8,0.48,6.76c0.26,3.46,0.46,6.2,0.53,9.02
					c0.14,5.39,0.27,10.82,0.91,12.44c1.57,0.56,6.68,0.57,11.63,0.58c8.96,0.02,17.92,0.05,26.89,0.08
					c14.77,0.05,29.54,0.1,44.31,0.1c21.25,0.05,24.92,13.73,25.21,21.88c0.2,6.07-1.68,11.33-5.44,15.24
					c-4.44,4.61-11.28,7.06-19.77,7.1l0,0c-16.03,0.07-32.07,0.05-48.1,0.02c-20.09-0.03-40.85-0.06-61.25,0.1
					C272.98,240.19,272.92,240.19,272.87,240.19z M285.83,181.21c-13.24,12.06-22.76,20.87-19.49,38.51
					c1.44,7.73,2.02,7.74,6.61,7.7c20.44-0.16,41.24-0.13,61.35-0.1c16.01,0.02,32.02,0.04,48.03-0.02h0
					c4.89-0.02,8.67-1.15,10.63-3.19c1.35-1.4,1.96-3.34,1.88-5.93c-0.22-6.03-2.33-9.53-12.47-9.55c-14.76,0-29.55-0.05-44.33-0.1
					c-8.96-0.03-17.91-0.06-26.87-0.08c-21.88-0.03-24.71-2.87-25.27-25.31C285.89,182.49,285.86,181.86,285.83,181.21z"/>
			</g>
		</g>
	</g>
</g>
</svg>
