<?xml version="1.0" encoding="utf-8"?>
<!-- Generator: Adobe Illustrator 24.3.0, SVG Export Plug-In . SVG Version: 6.00 Build 0)  -->
<svg version="1.1" id="Layer_1" xmlns="http://www.w3.org/2000/svg" xmlns:xlink="http://www.w3.org/1999/xlink" x="0px" y="0px"
	 viewBox="0 0 428.81 428.81" enable-background="new 0 0 428.81 428.81" xml:space="preserve">
<g>
	<g>
		<g>
			<g>
				<path fill="#F3EEE4" d="M253.32,194.21c4.08,0.38,7.58,0.7,12.05,1.12c0.21,3.53,0.4,6.93,0.64,10.89
					c-4.42,0.81-8.15,1.49-13.17,2.41c0,4.47-0.16,8.95,0.04,13.41c0.28,6.25-0.82,10.91-8.52,11.7c-1.91,0.2-3.54,3.71-5.17,5.79
					c-4.32,5.49-8.79,10.88-12.77,16.61c-2.3,3.32-5.02,7.18-5.16,10.89c-0.11,2.65,3.51,5.69,5.88,8.15
					c5.32,5.54,11.92,10.15,16.12,16.4c5.35,7.94,19.45,10.45,26.02,3.25c11.39-12.5,20.74-12.38,32.77,0.41
					c6.12,6.5,21.49,4.53,25.44-3.28c7.45-14.72,21.27-21.69,36.52-18.41c14.96,3.21,24.35,15.49,24.76,32.39
					c0.47,19.18,0.32,19.81-8.09,34.2c7.82,7.23,16.25,13.59,22.87,21.47c11.01,13.09,12.48,29.34,11.1,45.63
					c-0.23,2.75-5.33,7.25-8.24,7.3c-33.14,0.54-66.29,0.41-99.44,0.37c-6.63-0.01-7.7-4.6-8.04-10.04
					c-1.68-27.02,7.78-48.1,32.18-61.42c0.83-0.45,1.44-1.3,1.46-1.32c-3.39-10.14-6.63-19.82-10.26-30.67
					c-7.67-0.59-16.23-3.35-23.66,6.52c-6.46,8.57-18.42,7.71-26.2,0.27c-8.76-8.39-11.32-9.03-23.58-6.45
					c-3.45,10.32-6.69,20.03-10.21,30.55c15.93,8.05,27.95,21.19,32.25,40.48c0.07,0.32,0.2,0.63,0.27,0.95
					c5.86,27.01,2.73,31.07-24.09,31.1c-25.93,0.03-51.86-0.25-77.79,0.18c-9.23,0.15-12.75-2.89-13.01-12.4
					c-0.76-27.68,10.18-48.21,34.05-60.33c-3.54-10.24-6.88-19.9-10.7-30.93c-7.11-0.04-15.87-3.79-23.27,6.56
					c-6.23,8.71-18.34,7.9-26.15,0.44c-9.05-8.64-10.57-9.05-23.9-6.74c-3.32,10.24-6.5,20.02-9.87,30.41
					c3.92,2.84,9.51,6.29,14.39,10.55c16.59,14.47,20.75,33.65,18.91,54.45c-0.25,2.81-5.24,7.39-8.09,7.44
					c-33.14,0.54-66.29,0.44-99.44,0.34c-6.24-0.02-8-4.16-8.31-9.9c-1.54-28.29,9.15-49.78,36.39-63.83
					c-11.37-10.34-10.73-23.49-10.25-36.58c0.56-15.23,10.51-27.84,24.26-30.83c15.31-3.34,29.01,2.99,36.39,16.8
					c5.49,10.28,19.74,11.78,27.43,2.89c9.1-10.53,21.02-10.46,30.24,0.16c7.66,8.83,21.47,6.67,27.83-3.01
					c3.95-6,10.61-10.18,15.86-15.38c2.28-2.26,5.78-5.13,5.66-7.57c-0.18-3.83-2.37-7.98-4.79-11.18
					c-3.08-4.08-8.32-6.76-10.68-11.1c-3.16-5.82-3.86-12.9-12.73-13.56c-1.36-0.1-3.14-4.63-3.41-7.24
					c-0.54-5.15-0.16-10.4-0.16-15.38c-13.13-3.22-13.13-3.22-11.96-13.49c3.3-0.47,6.76-0.96,11.1-1.58
					c0.56-13.88-6.19-24.24-15.71-33.1c-14.4-13.39-23.71-29.33-27.38-48.82c-6.06-32.16,8.46-65.72,37.39-84.94
					c27.5-18.27,64.99-17.93,91.81,0.85c45.33,31.73,49.98,92.87,9.98,131.2C258.09,171.76,254.37,178.82,253.32,194.21z
					 M240.35,194.67c1.18-20.03,11.3-34.1,24.59-47.21c28.79-28.39,27.95-73.2-0.92-101.17c-28.46-27.58-72.98-26.75-100.63,1.88
					c-28.03,29.01-27.3,73.56,2.14,101.24c11.64,10.95,19.78,23.35,22.4,39.3c0.36,2.18,3.04,5.65,4.73,5.7
					C208.29,194.85,223.94,194.67,240.35,194.67z M388.15,389.88c1.23,13.33,1.85,13.76,13.53,10.48
					c2.13-18.61-6.19-35.48-22.41-44.41c-17.61-9.69-34.63-7.96-50.67,3.85c-12.99,9.56-19.39,26.67-15.75,41.3
					c3.74,0,7.45,0,11.16,0c0.69-4.24,1.25-7.67,1.9-11.72c3.97,0.23,7.35,0.42,10.46,0.6c0.77,4.57,1.34,7.99,2.02,12.08
					c8.09,0,15.63-0.38,23.11,0.1c9.13,0.58,17.52,0.92,15.67-12.26c2.46-0.2,4.07-0.43,5.67-0.43
					C384.43,389.46,386.01,389.7,388.15,389.88z M247.08,400.89c13.2,2.03,14.38,0.93,12.64-10.81
					c-3.01-20.22-16.83-35.32-35.96-39.32c-31.06-6.48-61.08,22.09-53.05,50.67c3.42,0,6.89,0,10.86,0
					c0.4-3.98,0.74-7.44,1.14-11.48c3.87,0,7.29,0,11.03,0c0.71,3.93,1.38,7.64,2.19,12.09c8.62,0,16.78-0.44,24.87,0.12
					c8.95,0.61,15.75-0.5,14.09-12.03c4.12,0,7.5,0,11.18,0C246.43,393.96,246.73,397.16,247.08,400.89z M52.74,401.43
					c13.11,0,25.4,0,38.05,0c0.53-4.05,0.98-7.53,1.5-11.49c3.82,0,7.25,0,11,0c0.6,3.92,1.13,7.39,1.73,11.38c3.99,0,7.7,0,11.31,0
					c3.79-24.73-12.63-46.87-37.18-50.96c-25.02-4.17-47.98,13.07-52.17,39.18c-1.98,12.35-0.41,13.83,12.53,11.04
					c0.31-3.28,0.63-6.75,0.99-10.53c3.98,0,7.37,0,11.06,0C51.95,393.83,52.29,397.02,52.74,401.43z M377.27,311.25
					c-0.25-0.04-0.51-0.08-0.76-0.11c0-1.96,0.1-3.93-0.02-5.88c-0.7-12.02-8.62-20.08-19.66-20.08c-10.9,0-19.16,8.39-19.55,20.19
					c-0.17,5.21-0.31,10.51,0.41,15.65c1.22,8.73,8.73,15.78,17.24,16.19c8.93,0.43,16.19-3.26,19.69-11.69
					C376.45,321.15,376.45,316.03,377.27,311.25z M234.56,311.93c-0.31-3.96-0.32-6.92-0.81-9.81c-1.72-10.29-9.7-17.11-19.64-16.98
					c-10.31,0.13-18.28,7.62-19.04,18.56c-0.41,5.84-0.38,11.81,0.36,17.6c1.12,8.8,9.52,15.78,18.36,16.1
					c9.06,0.33,17.45-5.91,19.42-14.81C234.06,318.79,234.21,314.84,234.56,311.93z M91.47,311.93c-0.02,0-0.05,0-0.07,0
					c0-2.94,0.17-5.89-0.03-8.82c-0.59-8.43-5.36-13.84-12.98-16.75c-7.91-3.02-14.84-0.71-20.6,5.01
					c-7.94,7.88-8.16,31.47-0.36,39.39c5.68,5.77,12.63,8.34,20.55,5.5c8.04-2.88,12.92-8.63,13.47-17.46
					C91.59,316.51,91.47,314.22,91.47,311.93z M189.12,220.04c17.3,0,34.13,0,51.18,0c0-4.32,0-7.81,0-12.57
					c-14.39,0-28.37,0.41-42.32-0.14C188.58,206.96,186.4,210.85,189.12,220.04z M227.15,234.15c-8.72,0-16.84,0-25.81,0
					c1.79,8.3,6.08,12.74,13.59,12.34C221.65,246.13,226.22,242.31,227.15,234.15z M294.66,304.75c-4.04-2.9-6.82-6.28-8.56-5.81
					c-2.71,0.74-4.72,4.09-7.02,6.33c2.27,1.9,4.43,5.12,6.84,5.32C288.1,310.77,290.56,307.66,294.66,304.75z M143.71,313.83
					c2.76-4.32,5.8-7.01,5.69-9.57c-0.09-2.05-4.58-5.89-6.1-5.44c-2.62,0.76-5.64,3.99-6.2,6.66
					C136.74,307.24,140.39,309.84,143.71,313.83z"/>
			</g>
		</g>
		<g>
			<g>
				<path fill="#F3EEE4" d="M170.1,103.1c0-3.69,0-6.83,0-9.86c18.55-5.27,19.92-8.72,8.13-25.04c2.4-1.9,5.09-4.04,7.43-5.9
					c6.41,1.14,9.01,11.95,16.34,5.63c3.8-3.28,5.8-8.65,9.63-14.67c0.81,0,4.26,0,7.7,0c4.55,18.39,8.87,20.18,23.1,8.63
					c2.4,2.28,4.89,4.66,7.33,6.98c-10.52,17.23-8.99,21.47,8.86,23.24c0,3.54,0,7.18,0,8.37c-5.75,3.62-12.51,5.53-13.86,9.35
					c-1.56,4.41,1.66,10.5,2.8,15.86c1.02,0.14,2.04,0.29,3.06,0.43c-2.83,2.1-5.66,4.21-8.6,6.39
					c-14.81-10.31-19.87-8.45-22.04,9.63c-3.24,0.21-6.66,0.42-9.93,0.63c-5.84-19.74-8.55-20.79-23.88-9.53
					c-1.37-1.24-2.89-2.45-4.19-3.86c-1.07-1.16-1.88-2.56-2.7-3.71C189.83,110.37,187.72,104.74,170.1,103.1z M233.99,97.32
					c-0.08-10.66-8.79-19.21-19.59-19.24c-10.76-0.02-19.25,8.45-19.4,19.34c-0.15,10.82,8.45,19.88,18.95,19.98
					C224.87,117.5,234.07,108.28,233.99,97.32z"/>
			</g>
		</g>
		<g>
			<path fill="#F3EEE4" d="M226.52,169.59c0,4.23,0,7.37,0,11.13c-8.21,0-15.85,0-24.18,0c0-3.91,0-7.24,0-11.13
				C210.49,169.59,218.15,169.59,226.52,169.59z"/>
		</g>
	</g>
</g>
</svg>
