<?xml version="1.0" encoding="utf-8"?>
<!-- Generator: Adobe Illustrator 24.3.0, SVG Export Plug-In . SVG Version: 6.00 Build 0)  -->
<svg version="1.1" id="Layer_1" xmlns="http://www.w3.org/2000/svg" xmlns:xlink="http://www.w3.org/1999/xlink" x="0px" y="0px"
	 viewBox="0 0 428.81 428.81" enable-background="new 0 0 428.81 428.81" xml:space="preserve">
<g>
	<g>
		<path fill="#F3EEE4" d="M156.04,358.36c6.97,13.86,13.08,26.6,19.85,38.98c1.29,2.35,5.16,4.63,7.87,4.67
			c25.04,0.33,50.08,0.15,75.13,0.14c22.94-0.01,45.87,0,70.21,0c-18.89-38.77-27.09-78.12-18.28-121.3c-4.76,0-8.45,0-12.14,0
			c-42.09,0-84.17,0.03-126.26-0.02c-18.38-0.02-24.91-6.68-24.91-25.25c-0.02-54.61-0.04-109.22-0.01-163.83
			c0.01-18.36,6.68-25.05,25.21-25.15c25.04-0.13,50.09,0.17,75.12-0.27c9.97-0.17,14.21,3.51,13.06,13.54
			c-0.47,4.12,0.1,8.35-0.09,12.51c-0.22,4.75,0.8,7.46,6.46,8.43c13.07,2.24,20.17,10.58,20.35,22.32
			c0.19,12.23-7.16,20.54-20.77,23.45c-1.65,0.35-3.32,0.64-5.33,1.02c0,6.4,0,12.49,0,19.25c6.71,0,12.79,0,18.8,0
			c4.55-19.02,11.56-26.38,24.68-26.17c12.98,0.21,20,7.57,24.43,26.87c7.06,0,14.56,0.22,22.05-0.06
			c7.58-0.28,10.57,3.1,10.5,10.58c-0.24,27.13,0.02,54.26-0.35,81.38c-0.19,14.24-7.79,21.05-22.51,21.39
			c-15.16,0.35-15.82,0.27-17.62,14.82c-4.31,34.79,1.73,67.77,19.15,98.43c0.69,1.21,1.46,2.36,2.17,3.56
			c7.88,13.44,5.85,17.12-9.56,17.21c-50.78,0.3-101.56,0.37-152.34,1.05c-9.64,0.13-13.94-3.26-17.16-12.37
			c-3.88-10.98-9.99-21.27-15.95-31.37c-3.88-6.56-9.49-8.46-17.72-5.33c-13.59,5.16-27.73,8.99-41.83,12.66
			c-22.71,5.91-36.79-5.11-37.06-28.56c-0.04-3.81,0.13-7.71,0.92-11.41c1.36-6.34-0.32-10.9-6.33-13.66
			c-6.2-2.85-8.66-7.35-7.25-14.33c0.43-2.14-0.72-5.67-2.39-6.97c-7.24-5.66-5.63-11.54-2-18.37c6.02-11.33,5.21-13.43-5.78-19.66
			c-18.36-10.41-19.3-16.49-7.42-33.64c10.07-14.53,18.94-29.9,28.42-44.85c3.55-5.6,3.02-10.17-2.3-14.49
			c-10.43-8.48-11.55-18.54-6.09-30.74c4.51-10.07,7.7-20.81,10.64-31.49c13.11-47.64,42.68-77.88,91.85-87.37
			c18.75-3.62,37.59-6.93,56.51-9.51c32.54-4.45,63.72,0.6,93.27,15.15c2.12,1.05,4.33,1.92,6.32,2.79
			c0.89-0.71,1.78-1.06,1.84-1.52c2.29-17.91,2.28-17.94,21.24-17.96c22.61-0.02,45.22-0.02,67.83,0.01
			c17.67,0.02,25,7.02,25.09,24.35c0.13,25.39-0.15,50.79,0.17,76.17c0.12,9.08-2.61,13.64-12.56,12.97
			c-9.69-0.66-19.47,0.02-29.21-0.19c-6.58-0.15-9.16-2.71-7.18-10.1c1.13-4.22,0.21-10.34-2.32-13.7
			c-1.52-2.03-10.04-2.08-11.6-0.06c-2.55,3.3-3.39,9.32-2.41,13.62c1.62,7.12-0.49,10.09-7.23,10.23
			c-9.39,0.19-18.78,0.16-28.17-0.03c-8.43-0.17-12.74-4.88-12.92-13.16c-0.19-9.04-0.16-18.09-0.05-27.13
			c0.09-7.3,3.13-9.52,10.76-7.71c4.17,0.99,9.97-0.49,13.48-3.01c1.83-1.32,1.79-9.45-0.05-10.74c-3.52-2.48-9.17-3.64-13.51-2.88
			c-6.45,1.12-9.27,0.44-11.06-6.62c-1.06-4.2-5.41-8.59-9.43-10.84c-22.58-12.63-47.14-20.38-72.88-17.78
			c-29.6,2.99-59.32,7.49-88.17,14.64c-34.19,8.48-54.07,33.58-64.99,66.19c-4.73,14.13-8.9,28.46-14.09,42.41
			c-2.36,6.33-0.93,10.32,3.64,14.66c11.08,10.52,12.46,16.27,5.05,29.3c-10.62,18.67-22.24,36.78-34.25,56.48
			c3.23,2.09,7.01,4.82,11.04,7.12c13.54,7.73,16.97,16.5,10.36,30.22c-2.62,5.45-1.94,8.01,2.33,12.23
			c3.02,2.99,3.1,8.96,3.2,14.03c10.95,7.73,13.66,17.9,10.92,31.59c-3.63,18.1,5.41,26.45,22.63,21.21
			c29.87-9.1,59.51-19,89.04-29.15c11.35-3.9,21.58-9.79,23.98-23.59c0.32-1.81,4.89-4.45,6.84-3.98c2.09,0.5,5.25,4.84,4.72,6.44
			c-2.23,6.71-4.12,14.82-9.03,19.07c-7.93,6.86-17.93,11.48-27.46,16.27C169.08,354.48,162.25,356.16,156.04,358.36z
			 M348.58,180.29c-9.27,0-17.18,0.05-25.09-0.01c-10.94-0.08-11.39-1.38-9.67-12.19c0.63-3.97-1.35-9.32-4-12.46
			c-1.5-1.77-8.55-1.75-10.01,0.01c-2.6,3.14-4.45,8.5-3.77,12.45c1.78,10.34,1.1,11.96-9.79,12.12
			c-8.17,0.12-16.35,0.02-25.48,0.02c0,10.05-0.02,18.32,0.01,26.59c0.02,7.87-2.14,11.8-11.37,8.85
			c-3.67-1.17-9.56,0.29-12.54,2.81c-2.01,1.7-2.3,9.44-0.56,10.76c3.44,2.59,9.27,4.31,13.32,3.28c8.2-2.09,11.15,0.39,11.14,8.21
			c-0.01,8.89,0,17.79,0,27.37c27.54,0,53.21,0,78.89,0c5.92,0,8.97-2.79,8.96-8.9C348.55,233.51,348.58,207.82,348.58,180.29z
			 M247.33,267.99c0-7.8,0-13.91,0-19.89c-16.88-2.91-25.45-10.57-26.09-22.79c-0.66-12.48,7.09-20.23,26.01-25.89
			c0-6.01,0-12.05,0-19.12c-9.36,0-17.97,0.05-26.58-0.01c-7.78-0.06-10.31-3.01-8.07-11.25c1.08-3.96-0.8-9.85-3.43-13.23
			c-1.39-1.79-9.1-1.56-10.72,0.41c-2.49,3.03-3.87,8.85-2.76,12.61c2.66,8.99-0.75,11.5-8.84,11.41
			c-8.54-0.1-17.08-0.02-26.59-0.02c0,27.6-0.23,53.56,0.33,79.51c0.06,2.8,4.59,7.85,7.14,7.9
			C194.01,268.22,220.31,267.99,247.33,267.99z M228.45,166.62c6.82,0,12.86,0,19.63,0c0-9.59-0.12-18.26,0.04-26.92
			c0.12-6.87,2.45-9.96,10.49-8.09c4.45,1.04,10.21-0.89,14.47-3.16c1.44-0.77,1.45-8.78-0.26-9.92c-3.73-2.48-9.4-4.43-13.52-3.44
			c-9.13,2.2-11.39-1.4-11.23-9.36c0.16-8.24,0.04-16.49,0.04-25.82c-27.95,0-54.6-0.25-81.23,0.43c-2.29,0.06-6.19,6.18-6.33,9.6
			c-0.67,16.66-0.31,33.36-0.31,50.05c0,8.88,0,17.76,0,26.93c7.79,0,13.9,0,19.89,0c3.33-18.25,10.47-26.02,23.59-26.19
			C217.35,140.55,224.34,147.78,228.45,166.62z M402.52,113.03c0-20.81,0.07-40.54-0.02-60.28c-0.12-30.44,3.3-26.85-27.46-26.96
			c-19.68-0.07-39.36-0.01-59.58-0.01c0,7.65,0,13.95,0,20.12c17.34,2.82,25.54,10.23,26.02,22.86
			c0.49,12.96-6.79,20.16-25.93,25.64c-2.69,20.06-0.94,21.73,18.97,18.06c3.71-17.44,10.97-25.35,23.55-25.67
			c12.94-0.32,20.89,7.92,24.81,26.24C388.82,113.03,394.89,113.03,402.52,113.03z"/>
		<path fill="#F3EEE4" d="M74.69,130.04c6.91-30.06,17.96-55.26,45.21-69.77c4.37-2.33,9.78-5.17,12.17,1.18
			c0.86,2.29-2.98,8.07-6.05,9.83c-20.15,11.46-30.46,29.59-36.3,51.04c-0.82,3.01-0.78,6.56-2.45,8.94
			c-1.64,2.33-5.22,5.05-7.47,4.69C77.57,135.59,75.92,131.59,74.69,130.04z"/>
		<path fill="#F3EEE4" d="M81.56,154.25c-3.86,2.43-6.35,5.24-8.43,4.97c-2.26-0.3-4.14-3.47-6.18-5.38
			c2.27-2.14,4.26-5.37,6.9-6.01C75.4,147.44,77.97,151.11,81.56,154.25z"/>
	</g>
</g>
</svg>
