<?xml version="1.0" encoding="utf-8"?>
<!-- Generator: Adobe Illustrator 24.3.0, SVG Export Plug-In . SVG Version: 6.00 Build 0)  -->
<svg version="1.1" id="Layer_1" xmlns="http://www.w3.org/2000/svg" xmlns:xlink="http://www.w3.org/1999/xlink" x="0px" y="0px"
	 viewBox="0 0 428.81 428.81" enable-background="new 0 0 428.81 428.81" xml:space="preserve">
<path fill="#F3EEE4" d="M334.1,206.76c5.92,2.91,9.49,0.75,12.13-4.91c4.37-9.37,8.85-18.7,13.83-27.75
	c1.41-2.56,5.26-6.08,7.04-5.6c2.74,0.74,5.83,4.19,6.71,7.11c4.89,16.18,9.17,32.55,14.52,52.02c4.24-13.17,8.57-23.68,22.41-19.06
	c2.28,0.76,2.89,6.55,4.89,11.56c-10.75-0.76-13.16,5.28-15.35,11.83c-1.73,5.18-3.49,10.46-6.15,15.18
	c-1.54,2.73-4.93,6.2-7.38,6.12c-2.32-0.07-5.71-3.99-6.56-6.83c-5.02-16.83-9.43-33.83-16.15-51.41
	c-2.89,5.72-6.07,11.31-8.6,17.19c-2.77,6.4-7.1,10.15-14.12,8.57c-13.81-3.11-20.97,4.82-27.83,14.92
	c-14.86,21.87-27.01,44.6-30.59,71.43c-0.93,6.95-6.42,13.25-9.57,19.96c-0.98,2.1-1.58,4.56-1.61,6.86
	c-0.03,2.05,2.01,4.63,1.31,6.1c-6.2,13.06-5.6,27.96-11.4,41.1c-1.3,2.96-2.68,6.41-2.36,9.46c1.46,13.85-5.7,23.72-19.58,24.19
	c-17.94,0.6-35.94,0.57-53.88-0.11c-13.28-0.51-20.44-10.76-18.72-23.9c0.4-3.04-1.41-6.39-2.28-9.57
	c-0.15-0.54-0.97-0.92-1.06-1.45c-1.25-7.71-0.59-16.43-4.12-22.87c-4.15-7.59-8.08-14.03-4.95-22.84c0.59-1.66,0.48-4.75-0.59-5.63
	c-10.46-8.68-11.49-21.29-13.36-33.11c-4.44-28.01-21.17-49.4-36.95-71.36c-3.42-4.76-6.72-3.08-8.68,1.76
	c-2.97,7.33-5.46,14.88-8.87,22c-1.22,2.55-4.91,6.03-6.78,5.65c-2.66-0.55-5.92-3.87-6.77-6.66c-4.89-15.99-9.12-32.17-13.63-48.28
	c-0.29-1.03-1.04-1.93-2.23-4.05c-3.63,7.12-6.9,13.21-9.87,19.44c-2.34,4.9-5.6,7.45-11.38,7.11c-7.23-0.42-14.5-0.1-22.4-0.1
	c0-4.41,0-7.9,0-12.08c2.16-0.25,4.59-1.09,6.8-0.68c11.71,2.16,18.73-2.22,22.37-13.73c2.09-6.59,5.68-12.82,9.32-18.76
	c1.86-3.03,5.33-5.06,8.07-7.54c2.29,2.84,5.7,5.33,6.69,8.57c4.29,13.95,7.84,28.12,11.73,42.19c0.55,1.98,1.48,3.84,2.37,6.09
	c3.86-6.6,7.42-12.71,11.81-20.23c-14.41-31.39-17.23-65.45-5.39-100.23c8.99-26.41,24.86-47.93,47.27-64.52
	c44.28-32.76,105.54-35.8,150.75-4.33C346.88,78.67,359.97,137.42,334.1,206.76z M167.71,221.29c-3.74-0.26-6.16-0.39-8.56-0.61
	c-11.73-1.07-18.25-7.64-19.11-19.25c-1.03-13.78-1.03-13.78-15.34-13.95c-0.3,0-0.61-0.04-0.91-0.01
	c-7.98,0.75-10.95-3.14-10.75-10.82c0.27-10.35,0.46-20.73-0.08-31.06c-0.81-15.59,1.42-28.94,20.16-31.83
	c0-6.5-0.09-11.97,0.02-17.43c0.27-13.59,6.9-20.37,20.36-22.17c2.62-0.35,5.95-3.25,7.04-5.8c3.92-9.15,10.22-14.09,20.27-14.05
	c5.18,0.02,10.37,0.21,15.53-0.08c7.09-0.39,9.91,2.87,9.82,9.77c-0.17,12.48,0,24.97,0,37.46c-0.03,36.24-0.23,72.49,0.02,108.73
	c0.05,7.97-2.9,11.2-10.73,10.66c-4.44-0.31-8.93-0.06-14.51-0.06c0.73,4.95,1.16,8.49,1.78,11.99
	c4.04,22.77,8.15,45.52,12.19,68.29c3.71,20.92,3.69,20.66,25.05,20.72c6.18,0.02,8.47-2.05,9.43-7.89
	c3.69-22.52,7.77-44.96,11.66-67.45c1.41-8.17,2.68-16.37,4.19-25.66c-5.99,0-10.23-0.31-14.42,0.07
	c-8.15,0.73-10.97-3.29-10.69-10.81c0.21-5.48,0.11-10.96,0.11-16.44c0.01-42.33-0.1-84.67,0.23-127
	c0.03-3.93,1.82-10.14,4.57-11.39c16.63-7.59,35.72,1.07,42.96,18.88c29.63-0.96,25.04,21.31,25.41,39.37
	c15.95,5.09,19.96,10.48,20.03,26.03c0.03,7.92-0.28,15.85,0.06,23.75c0.37,8.52-3.73,11.46-11.7,10.96
	c-4.97-0.31-9.98-0.06-15.36-0.06c0,9.1,0.06,16.4-0.01,23.7c-0.15,15.17-6.13,21.96-21.11,22.81c-5.5,0.31-7.33,2.57-8.04,7.54
	c-1.29,9.03-3.06,17.99-4.63,26.98c-3.81,21.76-7.62,43.51-11.44,65.26c20.43,3.54,26.81-0.69,30.33-19.36
	c0.23-1.2,0.32-2.41,0.49-3.62c3.86-27.71,17.44-51.03,34.01-72.65c29.12-38,36.65-79.53,18.15-123.61
	c-18.63-44.4-53.69-70.05-101.67-73.66c-49.96-3.76-89.63,17.32-114.06,61.09c-25.55,45.78-21.36,91.15,10.11,133.54
	c17.74,23.9,32.48,49,36.65,79.39c2.55,18.56,9.65,22.46,29.89,18.72C179.34,287.47,173.57,254.66,167.71,221.29z M159.2,88.09
	c-11.04-1.52-13.15,0.12-13.3,10.25c-0.09,5.78-0.34,11.58,0.08,17.33c0.58,7.96-2.11,11.7-10.7,11.93
	c-3.13,0.08-8.65,4.04-8.81,6.52c-0.88,13.21-0.42,26.51-0.42,40.1c7.15,0.06,14.61,3.7,14-7.71c-1.12-20.97,0.9-18.6,19.86-18.75
	c1.75-0.01,3.5,0.37,5.39,0.59c0,4.21,0,7.93,0,11.62c-4.31,0.47-7.86,0.86-12.32,1.35c0,13.7-0.4,27.01,0.38,40.25
	c0.13,2.28,5.12,5.72,8.17,6.08c7.5,0.9,15.2-0.09,22.77,0.44c7.21,0.51,9.28-2.01,9.22-9.28c-0.34-40.76-0.14-81.52-0.16-122.28
	c0-2.93-0.3-5.86-0.45-8.59c-18.22-2.53-20.01-1-19.98,16.12c0.01,5.08,0,10.16,0,15.44c-4.93,0-8.64,0-12.29,0
	C160.09,95.13,159.64,91.55,159.2,88.09z M233.89,114.71c0,31.49,0,62.01,0,93.23c11.13,0,21.46,0.42,31.71-0.28
	c2.74-0.19,7.26-3.62,7.49-5.91c0.88-8.87,0.36-17.87,0.36-28.34c-5.55,1.14-11.75,0.71-13,2.99c-3.81,6.93-8.35,3.36-12.81,3.34
	c-2-17.36-0.89-18.63,15.62-18.65c10.04-0.02,20.09,0.18,30.12-0.14c2.31-0.07,6.48-1.79,6.53-2.87c0.35-8.76,0.3-17.58-0.61-26.29
	c-0.18-1.73-4.7-4.46-7-4.26c-10.58,0.93-12.55-4.84-11.85-13.47c0.22-2.72,0.02-5.47,0.02-8.21c-0.04-17.63-0.07-17.32-17.52-18.96
	c-3.24-0.3-8.17-3.65-8.86-6.44c-3.51-14.23-5.48-15.78-20.45-11.99c0,10.42,0,20.92,0,31.49c8.23,1.04,18.66-0.63,22.88,3.72
	c4.4,4.54,2.83,14.88,3.89,22.89c-5.68,0-9.12,0-12.84,0c-0.5-4.21-0.93-7.76-1.42-11.85C242.04,114.71,238.24,114.71,233.89,114.71
	z M212.53,348.6c0-0.02,0-0.05,0-0.07c12.77,0,25.57,0.43,38.3-0.31c3.14-0.18,6.06-4.17,9.08-6.4c-2.89-2.42-5.74-6.87-8.68-6.94
	c-24.92-0.57-49.87-0.4-74.8-0.32c-4.7,0.01-9.95,0.7-9.93,6.77c0.03,6.4,5.18,7.31,10.45,7.29
	C188.81,348.57,200.67,348.6,212.53,348.6z M213.39,375.34c0-0.01,0-0.02,0-0.04c10.03,0,20.11,0.59,30.06-0.32
	c3.5-0.32,6.67-4.31,9.99-6.63c-3.3-2.34-6.55-6.59-9.92-6.7c-20.34-0.65-40.72-0.64-61.07-0.09c-3.2,0.09-8.44,3.63-8.98,6.32
	c-1.14,5.7,3.85,7.41,8.93,7.43C192.73,375.37,203.06,375.34,213.39,375.34z M213.41,401.79c0,0.01,0,0.02,0,0.04
	c8.52,0,17.1,0.5,25.55-0.29c2.68-0.25,5.04-3.91,7.54-6.02c-2.53-2.39-4.98-6.75-7.6-6.84c-17.03-0.64-34.1-0.66-51.13-0.07
	c-2.74,0.09-5.34,4.23-8,6.5c2.69,2.23,5.21,6.08,8.09,6.38C196.3,402.35,204.88,401.79,213.41,401.79z"/>
</svg>
